# xmcd CD database file
#
# Track frame offsets:
#	150
#	25682
#	51788
#	84718
#	118150
#	150422
#	174663
#	217859
#	242989
#	269806
#
# Disc length: 4049 seconds
#
# Revision: 0
# Processed by: cddbd v1.5.1PL0 Copyright (c) Steve Scherf et al.
# Submitted via: CDex 1.51
#
DISCID=870fcf0a
DTITLE=Alon Yavnai Trio - Picture This..
DYEAR=2004
DGENRE=Jazz
TTITLE0=Blues for Alon
TTITLE1=Paquito's Merengue
TTITLE2=The Beginning
TTITLE3=Fugue no.7 in Eb
TTITLE4=FunkTango
TTITLE5=Mouche Blues
TTITLE6=Zamba Azul
TTITLE7=Up Hill
TTITLE8=Picture this
TTITLE9=Long time ago Moses
EXTD=YEAR: 2004
EXTT0=
EXTT1=
EXTT2=
EXTT3=
EXTT4=
EXTT5=
EXTT6=
EXTT7=
EXTT8=
EXTT9=
PLAYORDER=
